<?xml version="1.0" encoding="utf-8"?>
<!-- Generator: Adobe Illustrator 26.0.3, SVG Export Plug-In . SVG Version: 6.00 Build 0)  -->
<svg version="1.1" id="Layer_1" xmlns="http://www.w3.org/2000/svg" xmlns:xlink="http://www.w3.org/1999/xlink" x="0px" y="0px"
	 viewBox="0 0 600 600" style="enable-background:new 0 0 600 600;" xml:space="preserve">
<style type="text/css">
	.st0{fill:#FFFFFF;}
</style>
<g>
	<g>
		<rect x="0.4" y="1.1" width="599.3" height="597.8"/>
		<g>
			<g>
				<path class="st0" d="M204.7,380.1l5.1,11.9h6.8l-22.4-49.9L170.9,392h6.6l5.4-11.9H204.7z M194.1,355.7l8.2,18.7h-16.7
					L194.1,355.7z"/>
				<path class="st0" d="M264.1,380.1l5.1,11.9h6.8l-22.4-49.9L230.3,392h6.6l5.4-11.9H264.1z M253.5,355.7l8.2,18.7h-16.7
					L253.5,355.7z"/>
				<polygon class="st0" points="126.4,391.9 146.2,362 146.2,392 152.5,392 152.5,342.1 126.4,380.8 126.3,380.6 100.2,342.1 
					100.2,392 106.6,392 106.6,362.4 106.8,362.8 				"/>
				<polygon class="st0" points="81.2,385.9 58.5,385.9 58.5,369.4 76.1,369.4 76.1,363.3 58.5,363.3 58.5,348.2 81.2,348.2 
					81.2,342.1 51.9,342.1 51.9,392 81.2,392 				"/>
				<path class="st0" d="M313,366.2c-1.9,0.9-4.2,1.3-7.3,1.3h-3.8v-19.6h3.4c1.7,0,3.2,0.1,4.6,0.4c2.4,0.5,4.2,1.3,5.5,2.6
					c1.6,1.5,2.6,4.1,2.6,6.8c0,0.9-0.1,1.7-0.3,2.5C317.1,362.8,315.4,365,313,366.2 M316.2,371.4L316.2,371.4
					c1.3-0.6,2.4-1.4,3.4-2.3c3.2-2.8,4.8-6.6,4.8-11.5c0-4.5-1.5-8.3-4.5-11.2c-1.7-1.7-3.7-2.9-6-3.5c-2.3-0.6-5.7-0.9-10.2-0.9
					h-8.4V392h6.6v-18.6h4.5c1.3,0,2.5-0.1,3.7-0.2l0,0l13.2,18.8h7.9L316.2,371.4z"/>
			</g>
			<g>
				<polygon class="st0" points="193,504.1 186.7,504.1 186.7,551.7 212.7,551.7 212.7,545.9 193,545.9 				"/>
				<polygon class="st0" points="237.8,504.1 231.5,504.1 231.5,551.7 257.5,551.7 257.5,545.9 237.8,545.9 				"/>
				<path class="st0" d="M155.5,539.8l5.1,11.9h6.7L145,501.9l-23.2,49.8h6.6l5.4-11.9H155.5z M144.9,515.4l8.1,18.7h-16.7
					L144.9,515.4z"/>
				<polygon class="st0" points="78.1,551.6 97.9,521.8 97.9,551.7 104.1,551.7 104.1,501.8 78.1,540.5 78,540.3 51.9,501.8 
					51.9,551.7 58.3,551.7 58.3,522.1 58.5,522.5 				"/>
			</g>
			<g>
				<path class="st0" d="M263.7,460l5.1,11.9h6.8l-22.4-49.9l-23.2,49.9h6.6L242,460H263.7z M253,435.5l8.2,18.7h-16.7L253,435.5z"
					/>
				<polygon class="st0" points="382.1,465.7 359.5,465.7 359.5,449.2 377,449.2 377,443.2 359.5,443.2 359.5,428 382.1,428 
					382.1,421.9 352.8,421.9 352.8,471.8 382.1,471.8 				"/>
				<path class="st0" d="M145.8,429c-4.9-4.9-11-7.5-17.9-7.5c-7,0-13.1,2.5-18.1,7.4c-5,4.9-7.6,10.9-7.6,17.7
					c0,7.8,2.8,14.2,8.3,19c5,4.3,10.7,6.5,17,6.5c7.1,0,13.2-2.5,18.2-7.4c5-4.9,7.5-10.9,7.5-17.8C153.3,440,150.7,434,145.8,429z
					 M141.3,460.7c-3.7,3.7-8.3,5.6-13.7,5.6c-5,0-9.4-1.9-13.2-5.5c-3.8-3.7-5.8-8.4-5.8-14.1c0-5.4,1.9-10,5.6-13.7
					c3.7-3.7,8.3-5.6,13.6-5.6c5.4,0,9.9,1.9,13.6,5.6c3.7,3.7,5.5,8.4,5.5,13.8C146.9,452.3,145,456.9,141.3,460.7z"/>
				<path class="st0" d="M80,448.5c-1.8-2.3-4.7-4.2-8.7-5.8l-5-2.1c-3.9-1.6-5.8-3.8-5.8-6.5c0-2,0.8-3.6,2.3-4.9
					c2.1-1.8,5-2.3,7.6-1.6c1.2,0.3,2.4,0.9,3.4,1.9c0.7,0.7,1.3,1.7,1.5,2.9h6.2c0,0,0-5.2-5.6-8.7c0,0,0,0-0.1,0
					c-0.1-0.1-0.3-0.2-0.4-0.2c-0.6-0.4-1.3-0.7-2-1c-0.1,0-0.2-0.1-0.3-0.1c-0.1,0-0.1-0.1-0.2-0.1c-0.7-0.2-1.4-0.4-2.1-0.6
					c-2.7-0.5-5.4-0.3-8,0.6c-1.7,0.6-3.3,1.5-4.7,2.8c-2.7,2.4-4.1,5.4-4.1,9c0,5.4,3.2,9.3,9.9,12.2l4.8,2
					c1.3,0.6,2.4,1.1,3.4,1.8c1,0.6,1.7,1.3,2.4,2c0.6,0.7,1.1,1.6,1.4,2.4c0.3,0.9,0.4,1.8,0.4,2.9c0,2.6-0.8,4.7-2.5,6.4
					c-1.7,1.7-3.8,2.6-6.3,2.6c-3.2,0-5.6-1.2-7.3-3.5c-0.7-0.9-1.3-2.4-1.6-4.5h-6.6c0.2,2.2,0.8,4.1,1.8,5.9l0,0.1
					c0.1,0.3,0.3,0.6,0.5,0.9c0.7,1.2,1.6,2.3,2.6,3.3c2.7,2.5,6.2,3.7,10.4,3.7c4.4,0,8.1-1.5,11.1-4.4c2.9-2.9,4.4-6.6,4.4-11
					C82.7,453.6,81.8,450.8,80,448.5"/>
				<path class="st0" d="M189,465.1c-4.3-1.2-7.1-4.8-7.7-12.5c0-0.5,0-0.9,0-1.4c0-0.2,0-0.3,0-0.5v-28.8h-6.5v30.8
					c0,2.3,0.3,4.5,0.9,6.7c0.6,2,1.5,3.9,2.7,5.6c1.2,1.6,2.6,3,4.3,4c2,1.3,4.4,2.1,6.8,2.5c1.3,0.2,2.6,0.3,3.8,0.3
					c2.5,0,4.8-0.4,6.9-1.1l-0.1,0c7.2-2.4,11.8-9,11.8-18.1v-30.8h-6.5v28.8c0,0.6,0,1.2,0,1.8c-0.5,7.7-3.2,11.4-7.5,12.7
					c-1.4,0.4-3,0.6-4.6,0.6C191.8,465.7,190.3,465.5,189,465.1"/>
				<path class="st0" d="M313.8,446c-1.9,0.9-4.2,1.3-7.3,1.3h-3.8v-19.6h3.4c1.7,0,3.2,0.1,4.6,0.4c2.4,0.5,4.2,1.3,5.5,2.6
					c1.6,1.5,2.6,4.1,2.6,6.8c0,0.9-0.1,1.7-0.3,2.5C318,442.7,316.3,444.9,313.8,446 M317.1,451.2L317.1,451.2
					c1.3-0.6,2.4-1.4,3.4-2.3c3.2-2.8,4.8-6.6,4.8-11.5c0-4.5-1.5-8.3-4.5-11.2c-1.7-1.7-3.7-2.9-6-3.5c-2.3-0.6-5.7-0.9-10.2-0.9
					h-8.4v49.9h6.6v-18.6h4.5c1.3,0,2.5-0.1,3.7-0.2l0,0l13.2,18.8h7.9L317.1,451.2z"/>
				
					<rect x="136.9" y="454.2" transform="matrix(0.7071 -0.7071 0.7071 0.7071 -288.7705 235.4669)" class="st0" width="5.9" height="24.2"/>
			</g>
		</g>
		<polygon class="st0" points="51.9,47.3 51.9,304.5 55.5,304.5 55.5,50.8 550.5,50.8 550.5,548.1 290.1,548.1 290.1,551.7 
			554,551.7 554,47.3 		"/>
	</g>
</g>
</svg>
